<svg version="1.1" xmlns="http://www.w3.org/2000/svg" viewBox="0 0 1787.6668014526367 952.1445926030477" width="1787.6668014526367" height="952.1445926030477">
  <!-- svg-source:excalidraw -->
  
  <defs>
    <style>
      @font-face {
        font-family: "Virgil";
        src: url("https://excalidraw.com/Virgil.woff2");
      }
      @font-face {
        font-family: "Cascadia";
        src: url("https://excalidraw.com/Cascadia.woff2");
      }
    </style>
  </defs>
  <rect x="0" y="0" width="1787.6668014526367" height="952.1445926030477" fill="#ffffff"></rect><g transform="translate(618.9058859534301 821.8112592697144) rotate(0 281.4222208658855 46.666666666666686)"><path d="M22.063704611112676 1.7519496865570545 M23.78078478922447 -1.0707726791501047 C182.00711069114251 -4.8926883923075115, 343.81298523808005 -4.028211377765885, 538.8771840170027 1.4361837550997736 M23.90134457771977 -0.729222222417593 C217.4542581014141 -2.063603937489705, 412.3732444705674 -1.0298455117771197, 539.4903409324587 0.7336497344076633 M539.5111083984376 0 C558.1890393640433 0.18341853097081184, 560.6403502238295 6.07659793438183, 560.8760896933577 25.012087085594736 M541.8588878326119 1.6610670275986195 C557.778947642218 -0.5540856981649993, 560.9737056090809 3.4743994019718647, 559.815904326675 20.804251944584152 M562.9004032400749 20.651300669958196 C561.8587439766776 38.385371992364526, 560.1505677214515 51.408913987378284, 561.068232872834 66.62217025086284 M561.5557387874774 24.353509336089097 C563.7695614479484 33.55966191614668, 563.9142999432983 42.47511358372867, 563.6260016368083 68.67817605473101 M562.844441731771 70 C561.6772770894072 89.35110401320789, 553.9862632896338 93.31286404406032, 535.9837842397393 89.86886880670986 M566.7713792336485 67.20015313103795 C564.9363596453643 85.32516262024227, 556.569283446442 93.47885333256175, 540.1916649812833 91.28014388040951 M538.2765230730178 92.26508998920521 C433.7030384409625 91.85218147277688, 327.8784383914267 91.75661820411537, 24.033332863946757 94.21067557384572 M539.3116312585772 93.1723151323696 C340.19262337220005 94.78710906669987, 140.34408286253176 95.404452087139, 23.14906002705296 92.67656587337456 M23.333333333333336 93.33333333333334 C7.346387414054739 93.6890860584875, -3.4602040834724903 82.04424225497577, -2.110298354178667 67.78814544156194 M24.729001046468817 95.60951409613094 C5.1568593662025215 97.38068818406514, -1.3340003257617354 82.82583071082416, 1.7498411530628797 71.38229949828238 M-2.227591138333082 69.94816152378917 C1.3689102474600077 62.15170496019225, 3.627485090866685 52.02606672545274, -1.7063832096755505 22.50941908483704 M1.8198435511440039 71.66805727221072 C-0.5749246567487718 60.653592236340046, -0.979113468527794 47.74759620986879, -0.10823802091181278 22.575825899218522 M0 23.333333333333336 C-0.14198144152760506 10.191613798754084, 6.056346324996817 0.7823428101837635, 20.05062902097901 -3.4198616556823254 M-3.530209619551897 24.584787943710886 C3.4125930720940225 11.057960828373002, 4.293813059830832 1.5390999829396605, 24.443655498263738 -2.83877664450556" stroke="#364fc7" stroke-width="1" fill="none"></path></g><g transform="translate(878.6840435055133 850.8112592697142) rotate(0 23 16)"><text x="23" y="23" font-family="Virgil, Segoe UI Emoji" font-size="20px" fill="#364fc7" text-anchor="middle" style="white-space: pre;" direction="ltr">Paho</text></g><g transform="translate(10 460.4888585408529) rotate(0 248.111083984375 34.22222900390625)"><path d="M14.47084091603756 -0.6462657302618027 M16.991155840374102 -1.4713714205421455 C111.41014074326651 1.3250442051392866, 204.63396657113807 3.609773260925552, 480.7213217880399 -0.45129611461209745 M17.533455080776992 -0.894175876449179 C165.37588237275642 -0.050987556689646274, 314.9434759224687 1.2895325570372194, 479.42775557897636 -0.4649001855504342 M479.1110534667969 0 C491.14734552800655 -3.2179958671331406, 496.34366558492184 6.5151350647211075, 495.02687691152096 15.216490998864174 M479.65972135961056 -3.252145990729332 C488.4404151268303 -1.8553910441696644, 496.64107485488057 5.1580052427947525, 495.83218169882895 15.283879142254591 M497.2478287369013 14.78205393254757 C493.87323918150696 25.768987024553805, 491.98872484968933 35.25688142027098, 498.2734849601984 54.455837711691856 M496.67014192789793 17.262096531689167 C496.7195783398615 26.865052939427756, 498.06123812417854 34.609740609373375, 494.468802921474 50.64914644509554 M496.22216796875 51.333343505859375 C499.2909850925207 61.61213470995426, 490.9765934795141 70.85432936251163, 481.35841320455074 70.7463591247797 M495.1223306506872 49.08616329729557 C499.4464377231896 65.06606972739101, 486.67382016852497 66.08383460566401, 477.22982874587177 63.84595423266292 M480.67177863914975 66.98193076159792 C326.3366133673372 74.3020705274662, 172.50646290870108 72.19133772278157, 18.2077146980814 67.06338725069202 M478.8266628701597 68.31673909672836 C313.2081662610857 64.34737895240579, 147.22694275007694 64.62213762209674, 17.56513547608565 67.99538835529889 M17.111114501953125 68.4444580078125 C5.932122215628624 70.37988735735416, 1.1101317256689072 65.90928293764591, 1.7514729350805283 52.68339277803898 M13.211343750357628 70.61050774157047 C3.566892082244158 72.75611875578761, -3.4240344934165474 59.171721463650464, -3.0052970342338083 48.240204005688426 M3.298165574669838 49.08379839360714 C-3.7803384363827766 41.09260584597489, -1.8518034517941533 36.27620272705357, 2.325469747185707 13.861280903220177 M-1.3813173845410347 49.761874325573444 C-0.14673512496464808 41.83948728224766, -0.9874789051007564 32.64379243862891, -1.91111708432436 17.57833708077669 M0 17.111114501953125 C-3.732160583138466 2.5801961570978165, 6.816362842917442 -2.8852507919073105, 19.713319286704063 3.027164712548256 M-1.940976157784462 20.251002088189125 C-0.15211583897471392 4.520041685551405, 10.299866826087236 3.335520797222853, 14.251840979605912 -1.5921972222626208" stroke="#364fc7" stroke-width="1" fill="none"></path></g><g transform="translate(104.00015258789062 479.6556065877279) rotate(0 64.5 16)"><text x="0" y="23" font-family="Virgil, Segoe UI Emoji" font-size="20px" fill="#364fc7" text-anchor="start" style="white-space: pre;" direction="ltr">Auth Objects</text></g><g transform="translate(1329.0001525878906 557.7110341389974) rotate(0 222.00006103515625 30.222244262695312)"><path d="M17.092001423239708 3.024298921227455 M13.950230294522662 1.932494119425965 C161.1905593309423 -5.09286433158027, 302.56131873351273 -1.964683843174679, 428.8702174177685 -2.0190893091388853 M14.643820694586639 -0.021965441288621317 C177.04170466910486 1.1396162182439507, 336.92746407288615 2.2224035173229777, 429.47002504660765 0.8966426764091694 M428.8889999389649 0 C438.97758196294313 3.9586112648248672, 442.1244864314795 2.229118600487709, 447.13374756276613 14.347268357872963 M431.68082998692995 -3.571754679083824 C439.0043609924615 -3.790854854136705, 443.6454580374063 6.249508290737867, 448.40449090674525 15.599225573986768 M447.4529392868281 14.050980553030968 C446.06175794430726 20.35801421072844, 444.3969091398334 31.289056047136853, 440.07509209215647 44.21129082143307 M444.38934873789555 15.471593029797077 C443.72534851247826 19.63948733644932, 442.5807106893734 29.090714467808596, 445.76036690920597 46.11198461800814 M444.00012207031256 45.33336639404297 C444.89120291173464 52.77074410021305, 442.63806770741945 63.71047140657902, 430.2495779842139 56.907310739159584 M440.25977991521364 47.27719761431217 C445.08414304927 52.58412306830287, 443.0542363710702 57.38803449198603, 427.36735859587793 62.09521637484431 M429.7629003852174 61.677140073775995 C284.02409521697115 63.27825139301809, 137.53685183570082 62.09357358080301, 15.482215296164146 59.159703060431724 M429.14638328156235 61.12811075605819 C273.89526524801965 63.925796702893685, 119.72998113834205 64.59250202854177, 15.888927703479917 61.4950232773407 M15.111122131347656 60.444488525390625 C5.641554817557335 56.9449527412653, 1.9081644862890244 52.41536547243595, 3.5161805003881454 46.88230063021183 M16.304367050528526 59.569982305169106 C2.385168392211199 60.71581485792994, -3.6066019944846626 52.72257204577327, 3.1167802400887012 47.83233571574092 M0.35593725740909576 42.7807187885046 C-2.939891767674004 36.821347328258554, -0.721378755741631 30.40981217172344, -0.8093244880437851 12.208759769797325 M-1.464356668293476 43.37263119965792 C0.8382960488381342 38.20502264166359, -1.8364015887198493 33.78070784587629, -0.4647679403424263 16.297873862087727 M0 15.111122131347656 C-0.1850433498620987 8.809499517083168, 1.3960957378149033 -0.05477403104305267, 18.496711239218712 1.7718260437250137 M-3.997252479195595 15.736698880791664 C2.817779428511858 9.267834406346083, 8.079535347968338 -4.541352314502, 11.90868540480733 2.7767731718719" stroke="#364fc7" stroke-width="1" fill="none"></path></g><g transform="translate(1492.3891296386719 576.4889119466146) rotate(0 67.5 25)"><text x="67.5" y="18" font-family="Virgil, Segoe UI Emoji" font-size="20px" fill="#364fc7" text-anchor="middle" style="white-space: pre;" direction="ltr">Topic Matcher</text><text x="67.5" y="43" font-family="Virgil, Segoe UI Emoji" font-size="20px" fill="#364fc7" text-anchor="middle" style="white-space: pre;" direction="ltr"></text></g><g transform="translate(674.2223205566406 365.93333180745446) rotate(0 253.33331298828125 140.88886642456052)"><path d="M66.99005915224551 -2.090251937508583 M70.14456074613724 -1.3439433599973198 C158.51112946582126 2.157900758133793, 241.476124425302 2.40811544667329, 438.5874459995432 -0.7446454117119454 M70.86842831130791 0.784258655517193 C148.1314037421386 1.1429630209959996, 222.63916897514704 1.0013283647746478, 436.06242144275143 1.0513749114799193 M436.2221927642822 0 C482.9532029777765 3.7702889293432236, 510.28353430330753 23.263318046927445, 507.6856959015131 69.96878050267695 M433.43577267229557 0.7157397121191025 C479.8159920029342 -4.140677683800458, 511.21415124461055 25.073691684752696, 503.7590162329376 72.41449869349597 M509.2791728824377 68.69612671434878 C506.7009497750433 117.18787134373112, 508.16745720988825 160.17352771627753, 508.7104334682226 211.96472956240171 M504.83515418320894 71.469496242702 C509.0909968632091 111.38954767529276, 507.9115265625347 154.57863444723898, 504.7300928905606 212.9447052404284 M506.6666259765625 211.33329963684076 C503.4192607551813 256.7296538203954, 485.7742159515619 282.6652793735265, 436.54197432100773 277.95325754582876 M509.4249055534601 212.24675606191153 C508.5525822453201 261.29130430892104, 479.2049475722015 286.3113392658531, 433.2955515436828 285.0793732948601 M434.76768878807167 280.07254270351336 C317.3608732011974 283.37888864272594, 196.68777354172522 280.358908088256, 69.57537809630291 281.19055130091806 M436.2922358625378 282.61461209159285 C324.68145804253624 282.41503977504254, 214.812002758195 281.7972700814315, 70.63405442796098 282.21340353491064 M70.44443321228026 281.77773284912104 C19.99414421617984 280.70132873952383, 0.897225633263588 256.2747983783483, 1.8978979736566544 208.76638601720327 M68.70645786821841 283.9698996394872 C23.024081545323128 282.80614381507036, -0.7742626614868642 254.2633224792778, 2.3956084303557867 214.94784134104842 M1.3450164645910263 208.6230619102716 C-2.2173129814964647 176.96745981921617, 0.433215449442256 139.53819134632482, -1.2341599613428116 72.30893923342227 M-0.47512661665678024 212.49638699740166 C-0.9931732148281305 165.33973451156365, 0.31591239270055604 116.41403142758111, 0.16672981530427933 70.65934776514767 M0 70.44443321228026 C-3.2995064109563828 25.007514461874955, 22.80020357668399 2.2149867862462997, 66.72519613802432 -3.292811408638954 M-0.37284110486507416 73.03146027028559 C1.275981693714857 22.393815047293895, 25.31576233431696 1.9517764873802657, 68.58501773402094 -0.6445510558784009" stroke="#364fc7" stroke-width="1" fill="none"></path></g><g><g transform="translate(897.5808996735509 649.9967789422898) rotate(0 0.5879342212966776 76.68856728067374)"><path d="M0.32021058946847925 0.8853642329573632 C-0.2841079195939299 26.185203637796565, -1.4229943298314005 126.30032315710147, -1.3076630789654244 151.14705739836646 M-2.9504850183427336 -1.1023204220831393 C-2.8589127177102167 24.689460433192966, 3.718601503321132 128.9394519296682, 4.126353460936071 154.47945498343063" stroke="#364fc7" stroke-width="1" fill="none"></path></g><g transform="translate(897.5808996735509 649.9967789422898) rotate(0 0.5879342212966776 76.68856728067374)"><path d="M-6.051236036700295 124.20001376231667 C-3.8465092511727548 138.10364248322756, -1.1539762451642614 144.80588814158014, 6.695197078971387 155.12974116619182 M-9.041366960388707 127.59019639899489 C-5.729898233448468 135.20125696940366, -1.2764608159169395 138.5905363372161, 5.640088747827531 155.9954885211165" stroke="#364fc7" stroke-width="1" fill="none"></path></g><g transform="translate(897.5808996735509 649.9967789422898) rotate(0 0.5879342212966776 76.68856728067374)"><path d="M14.451651911697102 123.33307191807323 C8.803947167810362 137.61545585448457, 3.64808598657069 144.6495621437964, 6.695197078971387 155.12974116619182 M11.46152098800869 126.72325455475145 C9.665899165180154 134.56211202400272, 9.011899037503769 138.16735371555924, 5.640088747827531 155.9954885211165" stroke="#364fc7" stroke-width="1" fill="none"></path></g></g><g transform="translate(834.3333435058594 489.87778981526696) rotate(0 75.5 16)"><text x="0" y="23" font-family="Virgil, Segoe UI Emoji" font-size="20px" fill="#364fc7" text-anchor="start" style="white-space: pre;" direction="ltr">Customer Code</text></g><g transform="translate(14.666801452636719 556.9333241780599) rotate(0 104.5 28)"><path d="M1.2793295875861286 1.1165383700190423 C81.99976268288272 0.675028634451623, 159.7671260366876 0.6708469979560328, 207.84990217068741 -0.2586291484521031 M0.5724921030661999 0.6056543085410654 C73.00714564099019 1.593568750121671, 147.73069792104673 1.2826926531686604, 209.17054099183477 0.16723125654922125 M208.55762798525393 -1.739523807540536 C209.0005193591118 14.5713154617697, 207.98055675029755 30.845859793946147, 210.41345060802996 56.67430021427572 M208.913457701914 0.5167290912941098 C208.4073743181303 19.489731569029395, 209.6358924763277 39.29754716474564, 209.75102023314685 56.49767423141748 M209.37487708694908 55.768049718764004 C162.53780271887987 54.03449699028887, 117.31695725697524 54.25569403536066, -0.8001558055111765 55.43199536999501 M209.70297704346652 56.00782197211414 C166.88099948499504 57.15426554878686, 122.81445718857802 56.42678779054235, 0.616245840914291 55.32728757374778 M1.9088348839432001 57.36868282221258 C-0.17183578297495838 34.94686654694378, 0.5382087798416615 12.339219201728703, -1.1429772283881903 -0.6537915263324976 M-0.6025435822084546 56.61874321568757 C-0.6119002356752753 36.44214856866748, -0.15545963790267703 18.16439291853458, -0.8761356072500348 0.05810243356972933" stroke="#364fc7" stroke-width="1" fill="none"></path></g><g transform="translate(253.66680145263672 551.9333241780599) rotate(0 124 30)"><path d="M-1.2903636592643537 0.8745700503843464 C53.988888489282225 0.8765582403940928, 106.59919996275175 1.4288778737760077, 247.89393176818047 -0.14192376092010364 M0.21194851837939807 -0.5887821080761094 C87.8306937222188 1.461581618122939, 173.80070408215752 0.7941113415658392, 247.72009586620428 0.17367034629800135 M249.86337018944323 -1.2575853858143091 C247.16494180578738 16.571870826184753, 246.15474672932177 34.659038448706276, 249.06294853426516 61.58869751356542 M247.10106215905398 -0.6285203052684665 C249.08686697930096 17.292881551198665, 249.17065456956624 35.85668319556863, 248.14408142399043 60.9544174419716 M248.32680266741292 58.91493468911158 C155.69112870974791 59.581455274200486, 65.93660971328516 60.01699370966828, 0.5864981699233495 59.01186757000226 M247.84437429249385 60.33462417014748 C157.53676543979685 59.16102612279552, 69.05362312701263 59.89828179623308, 0.3781239295559246 59.94142759403682 M-1.3157154228538275 61.10082342289388 C1.8361446982249618 40.82461466267705, -0.9239016050472856 25.36361243017017, -0.8383470084518194 0.1515550222247839 M0.24086264800280333 60.68088174331933 C0.5376849811524153 43.54061574395746, -0.1929023522883654 26.22200978640467, 0.7333352668210864 0.8266647206619382" stroke="#364fc7" stroke-width="1" fill="none"></path></g><g transform="translate(22.66680145263672 569.9333241780599) rotate(0 94.5 13)"><text x="94.5" y="18" font-family="Virgil, Segoe UI Emoji" font-size="20px" fill="#364fc7" text-anchor="middle" style="white-space: pre;" direction="ltr">Edge Workload API</text></g><g transform="translate(271.6668014526367 568.9333241780599) rotate(0 77.5 13)"><text x="0" y="18" font-family="Virgil, Segoe UI Emoji" font-size="20px" fill="#364fc7" text-anchor="start" style="white-space: pre;" direction="ltr">hmac signatures</text></g><g transform="translate(16.66680145263672 388.2667388916016) rotate(0 243.5 46.33329264322916)"><path d="M21.255902626862124 -1.5088893957436085 M21.520922038969264 1.0302361252782508 C114.805741278934 -1.410416492164185, 208.8639152273608 -2.5734582699194215, 463.66735708750133 0.3954431370847206 M23.119972997336767 -0.2484496995567838 C182.32107148611462 -0.45426588942644885, 339.03374495902034 0.8554984123655625, 463.163249006081 -0.44263947316582297 M463.83335367838544 0 C483.13471805262895 2.0366486720740795, 486.0680496878922 5.548699684855009, 484.06478168442845 25.243335367490843 M466.0543110954265 -0.16452201083302498 C476.3063137301761 1.3315995508804912, 484.24192055221647 5.669191481773223, 489.71171734090893 22.874409337279694 M487.3005097322166 25.07193014894922 C488.5450202663707 38.13401758219101, 488.34739856322284 49.52363873735662, 484.94067684933543 71.91213323548435 M488.1952647063881 23.78928838235636 C486.4762367783703 35.19953986411973, 485.0938302456059 49.82978302984305, 488.00867743231356 71.36827417276798 M487 69.49993896484374 C484.5812078900635 87.43043110229901, 475.94069122481676 95.83422863607603, 460.65099710101885 93.1322392237683 M488.31212939694524 71.29805890843271 C490.4883658086881 84.25032102939568, 483.24736210792844 90.54442731880891, 460.43832020914806 90.60599172854174 M461.96868616818415 92.31851451097828 C298.79287165799036 89.00372887933949, 137.19638397187197 90.6305115356578, 22.896374547917222 91.79910505350195 M463.2812431507867 93.26766636019735 C338.8614528318513 93.50721614249802, 213.15391430088667 93.83753723184904, 22.327074586110086 92.70334579696166 M23.16664632161458 92.66658528645831 C5.310244724568392 96.4281547081967, -1.2824432663619518 84.12545928814343, 2.503931064158678 72.75633696839212 M21.535111883034304 88.86770057802397 C9.57474146508094 91.95031598949183, -1.4352338695898652 80.77025087353668, 0.04167504068464023 66.39582785312085 M3.8321474008262157 67.08712424710392 C2.583297767860964 54.399720013050086, -0.6213582370447367 44.244439344670084, 0.7480866126716137 22.055526593079165 M0.1813646648079157 68.15367390774189 C-0.8314813372551204 60.57299079276881, 1.419634163671851 49.5826606898807, -0.12809400819242 23.94077686530848 M0 23.16664632161458 C0.27095236256718636 6.863708921190764, 6.754020020779635 0.2388928346335888, 23.277595618118838 3.6334915570914745 M3.5960205979645252 22.676930667211607 C-3.257652291096747 3.9884719094675436, 4.188227129210199 -2.749776113592088, 24.242639582914606 -3.9292837863788006" stroke="#364fc7" stroke-width="1" fill="none"></path></g><g transform="translate(157.6667811075846 403.59996032714844) rotate(0 72 13)"><text x="0" y="18" font-family="Virgil, Segoe UI Emoji" font-size="20px" fill="#364fc7" text-anchor="start" style="white-space: pre;" direction="ltr">Token Renewal</text></g><g><g transform="translate(931.4170575947938 811.3334401448569) rotate(0 -1.402558519249908 -75.31660939492289)"><path d="M-1.0035719152539968 0.5800787743180991 C-1.559967193599213 -24.643770200386662, -2.4905539408111017 -126.06611675657342, -2.6233061069737005 -151.21329756416392 M0.6704140998981893 -0.16098381450399768 C-0.09060063199641188 -25.21047507157551, -3.0241668467194773 -124.43469785979028, -3.475531138398014 -149.78778944721458" stroke="#364fc7" stroke-width="1" fill="none"></path></g><g transform="translate(931.4170575947938 811.3334401448569) rotate(0 -1.402558519249908 -75.31660939492289)"><path d="M8.439967877779125 -121.55286282306193 C3.1506363092662295 -130.31597188787038, 0.7307585558098788 -141.89179177274968, -5.098205892287456 -149.92083444444475 M8.416359939228713 -121.13166459003119 C2.4076502856807114 -133.7437549139534, -2.126177840649447 -144.17952117960715, -3.2776271374079213 -150.76375765444723" stroke="#364fc7" stroke-width="1" fill="none"></path></g><g transform="translate(931.4170575947938 811.3334401448569) rotate(0 -1.402558519249908 -75.31660939492289)"><path d="M-12.075071818981158 -121.04972404877685 C-9.987969156932108 -129.8221868661168, -5.030868466965921 -141.57892981752747, -5.098205892287456 -149.92083444444475 M-12.09867975753157 -120.62852581574612 C-10.123925519354842 -133.35448341472616, -6.672337319897165 -143.98609490620942, -3.2776271374079213 -150.76375765444723" stroke="#364fc7" stroke-width="1" fill="none"></path></g></g><g transform="translate(1327.6668014526367 480.3333180745443) rotate(0 222.5 27.5)"><path d="M12.284869115799665 -3.3329112343490124 M12.723080354973767 -0.8109450612954235 C106.18904404507654 2.231098385147632, 204.04511437528933 0.8121837529160387, 432.3599862511135 -0.9703924998603202 M13.660576842972143 0.2130271082965005 C176.33560121706043 -0.4675315717492241, 337.61542518598014 -1.3795372139359252, 430.98231791835406 1.0458168696636427 M431.25 0 C443.2207791420321 -2.686701636761427, 443.22529188916087 1.6481150177617874, 442.55277482792735 11.74371888116002 M433.32668904587626 3.856933493167162 C437.91712354763104 2.5541010295972226, 444.81079968754204 7.295050674242279, 447.3421459728852 12.678257141076028 M442.6016700454056 11.964761774986982 C445.41035584094936 20.05287858308293, 448.42322221877987 30.201095946598798, 446.90528382733464 43.20562927052379 M443.9703384246677 14.956097135320306 C444.75654508699665 21.954298503464088, 444.4761565529276 31.693476205226037, 445.6226420607418 40.80491406656802 M445 41.25 C447.22232846543193 52.43402153129379, 444.1533370825152 51.81764342263341, 429.7638146094978 51.345015067607164 M445.46565393731 38.831207890063524 C448.6427898520604 51.92561547315369, 442.484504601794 51.60496653076261, 434.10897044483573 51.162342665158214 M433.10515617872665 54.00822331397971 C326.2503154283476 56.30729337816545, 216.9003545285278 52.31388959211, 13.374985218710993 53.809092398318256 M431.10440330352077 54.53268425166403 C328.8300565772741 55.97933614035322, 227.04327270391548 55.593085314946606, 14.397610495579046 55.85525209618394 M13.75 55 C4.042649151136478 51.633841175585985, 0.14738671109080315 52.92059773082534, -1.8650656528770924 44.66586996987462 M17.006398003548384 52.5880292840302 C3.641586191890141 53.123735395632686, -4.3687174146994945 50.4583417073513, 4.325804834999143 39.77519024368375 M-1.248029451817274 37.62033132836223 C0.042053696187213 36.74404635815881, -0.7522546085994691 32.29358459962532, -2.4128147177398205 16.770759981125593 M0.37404330633580685 40.69444013573229 C-1.4049223632086068 32.04170189448632, 1.8910059362184257 26.161922408733517, -1.3462650571018457 12.189428636804223 M0 13.75 C2.5121448449790478 4.327145316948494, 6.131594420721134 0.11094929650425911, 17.069454353302717 1.381088275462389 M3.6334915570914745 14.020952362567186 C0.27472675982862693 8.718757020992538, 4.020160330769917 1.0759932613000274, 12.762717502750457 -1.113424732722342" stroke="#364fc7" stroke-width="1" fill="none"></path></g><g transform="translate(1476.0001347859702 490.99996439615893) rotate(0 63 25)"><text x="0" y="18" font-family="Virgil, Segoe UI Emoji" font-size="20px" fill="#364fc7" text-anchor="start" style="white-space: pre;" direction="ltr">Topic Parser</text><text x="0" y="43" font-family="Virgil, Segoe UI Emoji" font-size="20px" fill="#364fc7" text-anchor="start" style="white-space: pre;" direction="ltr"></text></g><g transform="translate(1331.6668014526367 389.3333180745443) rotate(0 223 34.5)"><path d="M13.912906665354967 3.1676433496177197 M16.269075401053488 1.6606010528955708 C153.86813629315995 5.214949131000735, 290.13683063229934 4.902270010405924, 430.7713188580081 -1.277230689382028 M16.647166990673114 0.6767515818492946 C102.53436635279603 2.347581571971022, 186.7630614308373 2.3360191186478607, 428.53752005750385 0.3252045709154543 M428.74999999999994 0 C443.432659048587 -1.8650656528770924, 449.41586996987456 5.2093158178031445, 443.7863812632858 19.659960072487593 M425.3838411755859 0.14738671109080315 C437.47623367663465 4.325804834999143, 444.5251902436837 4.808252858556807, 448.87952072378243 20.99485770408064 M443.30077294632787 18.860892195254564 C444.72184952086764 24.94477209490724, 441.71502371615725 35.39915446648374, 447.8883277587592 51.21924306824803 M445.55252445675427 17.158051988109946 C447.1613075164053 31.27927043954842, 445.02822959692213 43.13024619994685, 444.42642302252347 53.61572023294866 M445.99999999999994 51.75 C442.8788572736084 66.56945435330272, 441.63108827546233 71.51214484497905, 429.1127293296158 66.30746988579631 M445.7438119836151 53.2982610873878 C446.3115952169522 62.262717502750455, 439.1365752672776 69.27472675982862, 428.87759169097984 73.1785152906552 M426.8795044296859 67.44922776989453 C266.52852747725575 68.37156450842843, 106.5528732539874 71.5568465283396, 19.251775389194904 70.32632862725987 M427.97057735214645 68.15452466517492 C335.7701854569932 68.38859158588296, 245.00818054528762 67.69988488874723, 18.294596709863246 68.59003540874089 M17.25 69 C3.029477495700121 66.65819494053721, -1.27202532812953 61.31538585945964, -1.2056217007339 55.18488387390971 M15.490821976214647 71.71761385723948 C3.8364365851506594 67.38040180746466, 1.97564812656492 62.560717415250835, -2.370721771754324 53.439355647005144 M2.302625458687544 49.7835163064301 C3.7140092577878385 36.08383598434739, 1.1532741513196378 21.459247977938503, 0.5253273658454418 15.327276725322008 M1.6511732432991266 51.53362729214132 C-0.4765883584413677 42.754011184023696, 0.17229325576685373 37.82451371299103, 1.847512910142541 18.545685490593314 M0 17.25 C-2.2219255976378918 7.179476421326399, 8.006333846598864 3.491109173744917, 17.31863285973668 0.9767723493278027 M-0.6690741591155529 16.371265333145857 C0.9220956718549136 6.6301761085167525, 7.1309342121705415 -4.124644315801561, 15.638730726204813 -0.7791153674945233" stroke="#364fc7" stroke-width="1" fill="none"></path></g><g transform="translate(1499.5002975463867 655.1665700276693) rotate(0 62.5 12.5)"><text x="62.5" y="18" font-family="Virgil, Segoe UI Emoji" font-size="20px" fill="#364fc7" text-anchor="middle" style="white-space: pre;" direction="ltr">Topic Builder</text></g><g transform="translate(246.00013478596998 10.000000000000057) rotate(0 144.33339436848962 93.33333587646482)"><path d="M184.7954831551349 3.2825698533640235 C201.33497921533817 4.292465739645086, 219.6785980982472 10.941762164035087, 233.03507345123467 17.49338611724177 C246.39154880422214 24.045010070448452, 256.3491204899399 33.33263988460536, 264.9343352730597 42.59231357260411 C273.51955005617947 51.85198726060286, 280.6269938847057 62.47458459133664, 284.5463621499536 73.05142824523428 C288.4657304152015 83.62827189913192, 290.64583118655463 95.28384836230948, 288.45054486454717 106.05337549598995 C286.2552585425397 116.82290262967042, 279.86099137881297 127.83221909866319, 271.3746442179089 137.6685910473171 C262.8882970570048 147.50496299597103, 250.48258085138423 157.56142926640985, 237.53246189912272 165.0716071879135 C224.58234294686122 172.58178510941713, 209.28254685858667 178.82487635990822, 193.6739305043398 182.72965857633898 C178.06531415009295 186.63444079276974, 160.4642617600073 189.02420298063737, 143.88076377364146 188.50030048649808 C127.29726578727563 187.97639799235878, 109.65053608982757 183.9506866297405, 94.17294258614481 179.58624361150316 C78.69534908246206 175.22180059326584, 63.73980653101421 169.62428786990728, 51.01520275154496 162.3136423770742 C38.29059897207571 155.0029968842411, 26.06356038772227 145.27788374827543, 17.825319909329323 135.72237065450466 C9.58707943093638 126.16685756073389, 4.282111819024095 115.49130886601081, 1.5857598811873004 104.98056381444958 C-1.1105920566494945 94.46981876288835, -2.2198750385621886 82.83633819001072, 1.6472082823085543 72.65790034513725 C5.514291603179297 62.47946250026378, 15.302261867871023 53.08007964806504, 24.78825980641176 43.90993674520873 C34.27425774495249 34.73979384235243, 45.53900662709496 24.341250185123506, 58.563195913552974 17.637042927999417 C71.58738520001098 10.932835670875328, 86.67024452736673 6.266426208225939, 102.93339552515982 3.6846932024641887 C119.19654652295291 1.1029601967024383, 138.9852110145145 1.3351297316276813, 156.14210190031153 2.1466448934289133 C173.29899278610856 2.9581600552301452, 195.00773579181677 6.362108033078366, 205.87474083994198 8.55378417327158 C216.7417458880672 10.745460313464795, 222.44505108539883 13.70082885013199, 221.34413218906283 15.296701734588197 M253.85881339443813 32.83976110553383 C266.0424114813248 40.027469598067846, 275.0218590040333 52.82550275686934, 280.97000117369123 62.716641655153694 C286.9181433433492 72.60778055343805, 290.3071640318549 81.63493715607221, 289.54766641238575 92.18659449523997 C288.7881687929166 102.73825183440773, 282.8974152573994 115.52511422804155, 276.41301545687645 126.02658569016026 C269.9286156563535 136.52805715227896, 261.887730931143 147.14626769127074, 250.64126760924793 155.19542326795226 C239.39480428735288 163.2445788446338, 223.75407499146732 169.50042408343276, 208.93423552550615 174.32151915024934 C194.114396059545 179.14261421706593, 177.5363502541711 182.39287266962242, 161.72223081348093 184.12199366885181 C145.90811137279076 185.8511146680812, 130.78241006110557 186.77441718257745, 114.04951888136509 184.69624514562577 C97.31662770162463 182.61807310867408, 75.3271536550599 177.92723799289044, 61.324883735038156 171.65296144714176 C47.32261381501641 165.3786849013931, 39.00169864868615 156.46694452784473, 30.0358993612346 147.0505858711337 C21.070100073783046 137.63422721442268, 12.376454868605475 125.15661200991346, 7.530088010328825 115.15480950687561 C2.6837211520521747 105.15300700383776, -0.36235771831277463 97.55234202616151, 0.9576982115746944 87.0397708529066 C2.2777541414621636 76.52719967965169, 8.679942390237944 62.52116413743511, 15.450423589653639 52.07938246734612 C22.220904789069333 41.637600797257136, 29.470675906550866 31.688218424502146, 41.580585408068856 24.389080832372684 C53.690494909586846 17.089943240243223, 72.70660710602827 11.879090332320283, 88.10988059876159 8.28455691456935 C103.51315409149491 4.690023496818418, 117.74751797194666 3.6237814141130706, 134.00022636446877 2.8218803258670846 C150.25293475699087 2.0199792376210985, 168.77574060431795 0.7810152710164595, 185.62613095389423 3.473150385093433 C202.47652130347052 6.165285499170407, 223.17819995561 14.190435403948385, 235.10256846192647 18.974691010328925 C247.02693696824292 23.758946616709466, 254.61482837196715 29.957768016378584, 257.172341991793 32.178684023376675 C259.7298556116189 34.39960003037477, 252.39049422132967 30.891607242791185, 250.44765018088174 32.300187052317476" stroke="#364fc7" stroke-width="1" fill="none"></path></g><g transform="translate(321.95260293143133 75.33335149855844) rotate(0 81 38.5)"><text x="81" y="17.666666666666668" font-family="Virgil, Segoe UI Emoji" font-size="20px" fill="#364fc7" text-anchor="middle" style="white-space: pre;" direction="ltr">Retry/Reconnect</text><text x="81" y="43.333333333333336" font-family="Virgil, Segoe UI Emoji" font-size="20px" fill="#364fc7" text-anchor="middle" style="white-space: pre;" direction="ltr">Helpers</text><text x="81" y="69" font-family="Virgil, Segoe UI Emoji" font-size="20px" fill="#364fc7" text-anchor="middle" style="white-space: pre;" direction="ltr">?????</text></g><g transform="translate(638.6668014526367 23.999969482421875) rotate(0 145 110.66667175292969)"><path d="M89.89540677150316 7.299472304212145 C103.41198496318884 1.4303444618615062, 124.14093991599927 1.7707837299554399, 140.71653894922548 1.2504542494139486 C157.2921379824517 0.7301247688724573, 174.0806281636349 0.5467333688378324, 189.34900097086046 4.177495420963197 C204.617373778086 7.808257473088561, 219.5779398995312 14.838343898708443, 232.3267757925788 23.035026562166138 C245.07561168562637 31.23170922562383, 256.94911572340726 42.99653574446146, 265.842016329146 53.35759140170937 C274.7349169348848 63.71864705895728, 281.81972838267353 73.55544510214513, 285.6841794270115 85.20136050565361 C289.54863047134944 96.8472759091621, 290.97297624070023 110.61353114223624, 289.0287225951738 123.23308382276025 C287.0844689496474 135.85263650328426, 281.33895774311594 149.33222908851826, 274.0186575538528 160.91867658879767 C266.69835736458964 172.50512408907707, 257.4173629328784 184.16191662919297, 245.10692145959484 192.75176882443677 C232.7964799863113 201.34162101968056, 215.78712697491696 207.73107259007492, 200.15600871415154 212.45778976026043 C184.52489045338612 217.18450693044593, 167.38592877253072 220.33492053497605, 151.3202118950024 221.11207184554988 C135.25449501747406 221.8892231561237, 119.6031581469403 220.63451668771768, 103.76170744898157 217.12069762370345 C87.92025675102283 213.60687855968922, 69.58552071793616 207.52520863886014, 56.27150770724994 200.0291574614646 C42.95749469656371 192.53310628406905, 32.83548883593248 182.48624944304498, 23.87762938486418 172.1443905593301 C14.919769933795875 161.80253167561523, 6.520961511438221 150.41210923104563, 2.524351000840113 137.97800415917527 C-1.4722595097579947 125.54389908730491, -2.4241411866485456 110.28138608886505, -0.10203367872446734 97.53976012810796 C2.220073829199611 84.79813416735087, 8.989911617872277 72.37189011658776, 16.456996048384582 61.52824839463271 C23.924080478896887 50.68460667267766, 32.996711368674745 41.41148972041283, 44.70047290434937 32.47790979637763 C56.40423444002399 23.54432987234243, 77.8711042322932 12.128559101790614, 86.67956526243233 7.926768850421496 C95.48802629257146 3.7249785990523776, 94.28674588066161 7.700150930931497, 97.55123908518415 7.267168288162921 C100.81573228970669 6.834185645394345, 105.54131839047068 4.100907080516883, 106.26652448956759 5.328872993810037 M144.30289788283307 -1.3287838116982442 C160.148094999284 -2.826059690777119, 180.4930067123829 2.9869965474882605, 196.14712859606394 7.528947593227144 C211.80125047974497 12.070898638966028, 225.64370971455048 18.275737332873945, 238.22762918491915 25.92292246273506 C250.81154865528782 33.57010759259617, 263.8293372365925 42.37831674740001, 271.6506454182759 53.41205837239382 C279.47195359995925 64.44579999738764, 281.912617418373 79.67043493031201, 285.15547827501956 92.12537221269795 C288.39833913166615 104.5803094950839, 292.9199735308809 116.16845847221106, 291.1078105581552 128.14168206670948 C289.29564758542955 140.1149056612079, 282.8994875491828 152.98277498752338, 274.2825004386656 163.96471377968848 C265.66551332814834 174.94665257185358, 252.5435883952168 185.82705087964248, 239.40588789505165 194.03331481970005 C226.2681873948865 202.23957875975762, 210.5655763012787 208.51902814229777, 195.45629743767472 213.20229742003383 C180.34701857407074 217.8855666977699, 164.84840816377442 221.40950357996778, 148.75021471342777 222.13293048611632 C132.6520212630811 222.85635739226487, 114.41128812529091 221.68468593303814, 98.86713673559487 217.54285885692508 C83.32298534589883 213.40103178081202, 68.26130354222163 205.50220466771327, 55.485306375251525 197.28196802943796 C42.709309208281425 189.06173139116265, 31.211035395257674 178.94085310180083, 22.21115373377428 168.22143902727325 C13.21127207229089 157.50202495274567, 4.747123994357928 144.76632922224402, 1.4860164063511832 132.96548358227247 C-1.7750911816555615 121.16463794230091, 0.02870302698392857 110.0371487125544, 2.644508205733814 97.41636518744394 C5.2603133844837 84.79558166233349, 10.079150157910558 68.5939371469609, 17.180847478850495 57.240782431609745 C24.282544799790433 45.88762771625859, 33.211582078075566 37.489195623023164, 45.25469213137343 29.29743689533703 C57.2978021846713 21.105678167650893, 73.70068739827036 13.421722581564776, 89.43950779863769 8.090230065492918 C105.17832819900502 2.758737549421059, 130.977914550827 -0.9324242029735643, 139.68761453357743 -2.6915182010941265 C148.39731451632787 -4.450612199214689, 141.1971768767155 -3.038097716066711, 141.6977076951404 -2.4643339232304555 C142.1982385135653 -1.8905701303942002, 142.46886698919496 -1.886786757371349, 142.69079944412684 0.7510645559234064" stroke="#364fc7" stroke-width="1" fill="none"></path></g><g transform="translate(717.33363087972 101.99998474121082) rotate(0 65.5 25.5)"><text x="0" y="18.5" font-family="Virgil, Segoe UI Emoji" font-size="20px" fill="#364fc7" text-anchor="start" style="white-space: pre;" direction="ltr">Async Helpers</text><text x="0" y="44" font-family="Virgil, Segoe UI Emoji" font-size="20px" fill="#364fc7" text-anchor="start" style="white-space: pre;" direction="ltr">   ???????</text></g><g><g transform="translate(1481.166862487793 422.1834081013998) rotate(0 0.6058175941514037 0.05138074605725862)"><path d="M1.033852270245552 -0.5170629769563675 C1.2381030827760695 -0.3260913163423539, 0.8600098401308057 0.33499295413494107, 0.8530393391847608 0.26194178760051723 M0.11748598278500144 1.825875014802441 C0.27094718308188026 1.7114745454397051, 0.24789613724686227 -1.3955589567217976, 0.3528395286295565 -1.723113522687927" stroke="#000000" stroke-width="1" fill="none"></path></g></g><g><g transform="translate(1626.8334681193037 424.26667785644537) rotate(0 -0.015842634274576994 0.6198306810612593)"><path d="M-0.9056193619966506 0.8477770596742629 C-0.6386497765779495 0.9366348057985304, 0.5941843718290328 -0.1261874407529832, 0.6464475363492965 -0.1309728831052781 M0.8197917436156423 0.24725607066415245 C1.0688990725670011 0.5871318817045539, 0.4525122980866581 1.561140941074118, 0.03778702930547295 1.3376916044857352" stroke="#000000" stroke-width="1" fill="none"></path></g></g><g transform="translate(1332.8334884643555 641.0443522135417) rotate(0 222.00006103515625 30.222244262695312)"><path d="M13.14593306183815 2.3584257066249847 M13.348488563636748 -0.8366440439302647 C177.10080969034686 4.4155875522667465, 336.2419855911077 1.4397875572597072, 428.23057414507383 1.0255841967825667 M15.13953757007875 -0.5285169855399772 C122.80316662411332 -3.5636778172824695, 229.18887701932957 -4.238590300336805, 429.318310759351 -0.6385374049283664 M428.8889999389649 0 C441.7000168859959 2.6147819459438324, 446.1394347250462 7.798197358846664, 443.5826357901097 14.63089045882225 M432.68157473206526 -0.622162252664566 C441.71701263636356 4.216647942364215, 445.01294793337587 6.3542766407132145, 443.54690894335516 15.660270769894122 M442.74154719710356 14.443417459726334 C445.3348720939789 29.160398114119573, 440.8491667183075 38.77670127827844, 445.4533763825894 43.372274309396744 M444.7656268626452 14.792952820658684 C445.76071788758856 24.98484760433638, 443.52327730149847 34.650665117506264, 442.89851994812494 45.89732627570629 M444.00012207031256 45.33336639404297 C447.3808774054051 55.84822806715965, 435.8666361868382 63.939541429281235, 426.70389547944075 63.26712283492088 M441.6988457739354 48.42526397109032 C440.4341311857105 53.461457188427445, 436.0495489045978 61.71934040337801, 430.02513283938174 61.515724547207355 M430.793286815408 62.0977559754328 C310.1227526077269 54.96230561636608, 188.86110293964586 57.72382127972258, 14.08372616169716 60.85304857276014 M429.647689718734 60.78537054289482 C342.0704799764017 57.698383734725276, 256.08118895961917 57.288758972678984, 15.639956287313147 60.21402489709307 M15.111122131347656 60.444488525390625 C6.516327768564224 59.110070794820786, 2.3217276632785797 55.52348193526268, 1.9277705252170563 44.74438914656639 M16.194144159555435 59.00081214308739 C8.952952615916729 62.228077347576615, 2.0160357400774958 53.868657095730306, 0.3419523164629936 46.91363437920809 M-3.0440782606601715 48.63164606690407 C2.672379420089203 34.26085721169892, 2.147001192855316 23.457359616259396, -1.0762676298618317 14.596361070871353 M1.9228744059801102 44.40381745994091 C1.6910866934006095 36.04621775906418, 1.2869590955917716 27.35980641267963, 0.8682064563035965 16.304974362254143 M0 15.111122131347656 C3.2434681951999664 2.4902912080287933, 6.891809374094009 3.538162797689438, 15.993198305368423 2.6989961564540863 M-1.3435927331447601 14.546300500631332 C1.2922177717089651 5.681098873913288, 7.568649284541607 -0.3225199863314625, 14.530445377528668 2.552416403591633" stroke="#364fc7" stroke-width="1" fill="none"></path></g><g transform="translate(1468.0001754760742 409.76669820149743) rotate(0 75.5 12.5)"><text x="75.5" y="18" font-family="Virgil, Segoe UI Emoji" font-size="20px" fill="#364fc7" text-anchor="middle" style="white-space: pre;" direction="ltr">Message Waiter</text></g><g transform="translate(995.166801452637 11.838080996558801) rotate(0 145 110.66667175292969)"><path d="M30.43067150856686 44.4980774081878 C37.986345633494466 34.15784454574322, 51.125869879744634 25.66216529202238, 64.35401327003885 18.458482725887592 C77.58215666033306 11.254800159752804, 93.4462674793845 4.177945311606111, 109.79953185033213 1.275982011379071 C126.15279622127976 -1.6259812888479694, 145.93089223886284 -0.4302524744269245, 162.4735994957246 1.0467029245253485 C179.0163067525864 2.5236583234776218, 194.56688054104416 4.369935750814676, 209.05577539150272 10.137714405092709 C223.54467024196128 15.905493059370741, 237.7911938697819 26.328427724856624, 249.40696859847597 35.65337485019354 C261.02274332717 44.97832197553046, 272.0275123288857 55.00587253416742, 278.7504237636672 66.08739715711424 C285.4733351984487 77.16892178006105, 288.4730738623699 89.87713271391432, 289.7444372071649 102.14252258787444 C291.01580055195984 114.40791246183456, 291.06160846404646 127.24623479160306, 286.3786038324369 139.67973640087496 C281.69559920082736 152.11323801014686, 271.54724074959165 166.59004225299526, 261.64640941750775 176.74353224350583 C251.74557808542386 186.8970222340164, 240.34618954482755 193.6032125558633, 226.97361583993353 200.60067634393832 C213.6010421350395 207.59814013201333, 197.13526822896645 215.21287754789714, 181.4109671881437 218.72831497195585 C165.68666614732095 222.24375239601457, 149.23514995893854 223.16842534299087, 132.62780959499707 221.6933008882906 C116.02046923105563 220.21817643359032, 96.49865896137675 215.489332045116, 81.766925004495 209.8775682437542 C67.03519104761324 204.26580444239244, 55.44359738843074 196.40422859562128, 44.237405853706534 188.0227180801199 C33.03121431898233 179.6412075646185, 22.04685801943155 170.76861190091694, 14.529775796149778 159.58850515074585 C7.012693572868005 148.40839840057475, 0.6172138434673162 133.6376659409936, -0.8650874859841053 120.94207757909334 C-2.3473888154355267 108.24648921719307, 1.4881399767016275 95.69188155819757, 5.635967819441248 83.41497497934425 C9.783795662180868 71.13806840049094, 17.17274198596738 56.4986952320375, 24.02187957045362 47.28063810597347 C30.87101715493986 38.06258097990945, 38.99830228168975 32.783633971465704, 46.73079332635869 28.106632222960116 C54.46328437102763 23.429630474454527, 68.4971293229048 17.453379963091912, 70.41682583846726 19.218627614939948 M30.24128047936867 45.4649472057135 C37.02710085704875 34.111772605811495, 48.95938933844138 23.36768764725865, 62.42177433859729 16.281649196127475 C75.8841593387532 9.195610744996301, 94.96287542818648 5.935247120475353, 111.0155904803041 2.9487164989264585 C127.06830553242172 -0.037814122622435775, 142.1135656763662 -2.9918015589600673, 158.738064651303 -1.6375345331658906 C175.36256362623982 -0.2832675073717137, 195.3558308804935 5.550534099015398, 210.76258432992495 11.07431865369152 C226.1693377793564 16.598103208367643, 240.06847222189012 22.62663283562165, 251.17858534789167 31.50517279489084 C262.2886984738932 40.38371275416003, 271.51872406829324 52.74246889500392, 277.42326308593425 64.34555840930668 C283.32780210357527 75.94864792360943, 285.2337193344986 88.36402462493187, 286.6058194537378 101.12370988070738 C287.97791957297704 113.88339513648289, 289.2154127404628 128.58094360972612, 285.6558638013698 140.90366994395976 C282.09631486227676 153.2263962781934, 274.9435984822868 164.86616614398778, 265.2485258191796 175.06006788610927 C255.55345315607238 185.25396962823075, 241.13689274161482 194.87085919123427, 227.48542782272656 202.06708039668865 C213.8339629038383 209.26330160214303, 199.27037322623863 215.1897500721712, 183.33973630585004 218.23739511883548 C167.40909938546145 221.28504016549977, 148.87754543682001 222.03549747813145, 131.90160630039495 220.35295067667437 C114.92566716396988 218.6704038752173, 96.68998792432811 213.77156532329394, 81.4841014872996 208.14211431009295 C66.27821505027109 202.51266329689196, 51.68735813625817 195.26991455999107, 40.66628767822387 186.5762445974685 C29.645217220189565 177.88257463494594, 22.141114792342993 167.080688917756, 15.357678739093785 155.98009453495763 C8.574242685844577 144.87950015215927, 1.7360609718542246 132.42345846137698, -0.03432864127137236 119.97267830067834 C-1.8047182543969693 107.5218981399797, 0.8445451334493939 93.03083392049169, 4.735341060340204 81.27541357076575 C8.626136987231014 69.51999322103981, 19.253725362734908 55.93588895944622, 23.31044692007349 49.44015620232275 C27.36716847741207 42.94442344519928, 27.562163392516396 42.74086690297571, 29.075670404371692 42.30101702802493 C30.58917741622699 41.86116715307415, 30.861408561088954 45.10441907263433, 32.391488991205264 46.801056952618055" stroke="#364fc7" stroke-width="1" fill="none"></path></g><g transform="translate(1068.3096934727264 94.07618132091704) rotate(0 83.5 38.5)"><text x="83.5" y="17.666666666666668" font-family="Virgil, Segoe UI Emoji" font-size="20px" fill="#364fc7" text-anchor="middle" style="white-space: pre;" direction="ltr">Paho Convenience</text><text x="83.5" y="43.333333333333336" font-family="Virgil, Segoe UI Emoji" font-size="20px" fill="#364fc7" text-anchor="middle" style="white-space: pre;" direction="ltr">Layer</text><text x="83.5" y="69" font-family="Virgil, Segoe UI Emoji" font-size="20px" fill="#364fc7" text-anchor="middle" style="white-space: pre;" direction="ltr">??????</text></g><g transform="translate(1609.6668014526367 931.1445926030477) rotate(0 84 10.5)"><text x="168" y="15" font-family="Virgil, Segoe UI Emoji" font-size="16px" fill="#adb5bd" text-anchor="end" style="white-space: pre;" direction="ltr">Made with Excalidraw</text></g></svg>